<svg xmlns="http://www.w3.org/2000/svg" viewBox="0 0 512 512">
<rect width="512" height="512" fill="#DE2910"/>
<g fill="#FFDE00">
<polygon points="128,96 152,170 230,170 167,214 191,288 128,244 65,288 89,214 26,170 104,170"/>
<polygon points="256,64 264,92 293,92 269,109 278,137 256,120 233,137 242,109 218,92 247,92" transform="translate(80,20) scale(.6)"/>
<polygon points="256,64 264,92 293,92 269,109 278,137 256,120 233,137 242,109 218,92 247,92" transform="translate(140,60) scale(.6)"/>
<polygon points="256,64 264,92 293,92 269,109 278,137 256,120 233,137 242,109 218,92 247,92" transform="translate(140,-20) scale(.6)"/>
<polygon points="256,64 264,92 293,92 269,109 278,137 256,120 233,137 242,109 218,92 247,92" transform="translate(100,20) scale(.6)"/>
</g></svg>